<svg width="10" height="16" viewBox="0 0 10 16" fill="none" xmlns="http://www.w3.org/2000/svg">
<path d="M0.644531 8.26732C0.644531 8.41264 0.670785 8.54678 0.723291 8.66974C0.781632 8.79271 0.869143 8.91008 0.985825 9.02186L7.80294 15.4103C8.0013 15.6004 8.24049 15.6954 8.52053 15.6954C8.71305 15.6954 8.88516 15.6507 9.03685 15.5612C9.19437 15.4774 9.3198 15.36 9.41314 15.2091C9.50649 15.0638 9.55316 14.9017 9.55316 14.7229C9.55316 14.4546 9.44523 14.217 9.22937 14.0102L3.08609 8.26732L9.22937 2.52442C9.44523 2.31762 9.55316 2.08287 9.55316 1.82018C9.55316 1.63573 9.50649 1.47085 9.41314 1.32553C9.3198 1.18021 9.19437 1.06564 9.03685 0.981797C8.88516 0.89237 8.71305 0.847656 8.52053 0.847656C8.24049 0.847656 8.0013 0.939878 7.80294 1.12432L0.985825 7.51278C0.869143 7.62456 0.781632 7.74194 0.723291 7.8649C0.670785 7.98786 0.644531 8.122 0.644531 8.26732Z" fill="black"/>
</svg>
