<svg width="47" height="44" viewBox="0 0 47 44" fill="none" xmlns="http://www.w3.org/2000/svg">
<path d="M23.5175 0L24.2961 3.18568C25.5821 8.44717 26.2252 11.0779 27.5965 13.2007C28.8091 15.0779 30.4259 16.6604 32.3286 17.8325C34.4803 19.1581 37.1242 19.7446 42.412 20.9177L46.284 21.7766L42.412 22.6356C37.1242 23.8087 34.4803 24.3952 32.3286 25.7208C30.4259 26.8929 28.8091 28.4754 27.5965 30.3526C26.2252 32.4754 25.5821 35.1061 24.2961 40.3676L23.5175 43.5533L22.7388 40.3676C21.4528 35.1061 20.8098 32.4754 19.4385 30.3526C18.2258 28.4754 16.6091 26.8929 14.7064 25.7208C12.5547 24.3952 9.91079 23.8087 4.62297 22.6356L0.750977 21.7766L4.62297 20.9177C9.91078 19.7446 12.5547 19.1581 14.7064 17.8325C16.6091 16.6604 18.2258 15.0779 19.4385 13.2007C20.8098 11.0779 21.4528 8.44717 22.7388 3.18568L23.5175 0Z" fill="#5669FF"/>
</svg>
